<?xml version="1.0" standalone="no"?>
<!DOCTYPE svg PUBLIC "-//W3C//DTD SVG 20010904//EN"
 "http://www.w3.org/TR/2001/REC-SVG-20010904/DTD/svg10.dtd">
<svg version="1.0" xmlns="http://www.w3.org/2000/svg"
 width="276.000000pt" height="276.000000pt" viewBox="0 0 276.000000 276.000000"
 preserveAspectRatio="xMidYMid meet">
<metadata>
Created by potrace 1.14, written by Peter Selinger 2001-2017
</metadata>
<g transform="translate(0.000000,276.000000) scale(0.100000,-0.100000)"
fill="#000000" stroke="none">
<path d="M1675 1728 c-43 -51 -158 -232 -209 -329 -16 -30 -23 -35 -47 -31
-56 8 -135 -45 -214 -143 -65 -81 -115 -124 -115 -97 0 4 21 43 46 86 83 141
88 174 23 140 -36 -18 -80 -56 -152 -129 -27 -27 -47 -45 -45 -40 3 6 27 47
53 93 26 46 45 86 41 89 -12 12 -59 -23 -85 -62 -14 -22 -28 -42 -31 -45 -28
-27 -59 -74 -54 -82 4 -7 2 -8 -4 -4 -6 4 -25 -7 -41 -25 -47 -49 -54 -30 -15
41 19 36 40 77 47 93 6 15 15 27 20 27 4 0 6 4 3 9 -12 18 -48 -3 -84 -48 -20
-25 -47 -57 -59 -70 -23 -24 -31 -47 -13 -36 15 10 12 -4 -8 -33 -28 -41 -42
-88 -30 -100 14 -14 47 7 118 75 30 28 56 51 57 49 2 -1 -11 -28 -28 -60 -25
-46 -29 -60 -19 -69 10 -9 14 -9 17 1 3 6 8 10 13 7 4 -3 21 12 36 33 50 65
174 206 174 196 0 -3 7 2 16 10 39 39 28 8 -32 -94 -44 -74 -64 -118 -62 -135
l3 -25 38 20 c22 12 49 31 61 43 11 12 31 31 44 42 l23 19 -10 -28 c-12 -30
-14 -79 -5 -89 12 -11 60 21 123 82 33 32 61 57 61 54 0 -7 -34 -67 -41 -73
-3 -3 -9 -17 -13 -32 -8 -36 10 -37 62 -4 44 28 187 174 179 182 -3 3 -26 -14
-50 -40 -24 -25 -43 -47 -41 -49 2 -2 -11 -11 -28 -22 -30 -17 -31 -17 -24 0
3 10 65 120 136 245 130 229 200 359 200 373 0 14 -16 7 -35 -15z m-266 -428
c-55 -90 -189 -221 -189 -185 0 3 11 27 24 53 44 88 137 182 178 182 15 0 14
-7 -13 -50z"/>
<path d="M2481 1699 c-12 -16 -37 -51 -54 -77 -17 -26 -36 -50 -41 -54 -7 -5
-7 -8 -1 -8 6 0 6 -3 0 -8 -10 -7 -89 -137 -158 -262 -20 -36 -48 -77 -62 -92
-13 -15 -22 -33 -19 -41 3 -8 -6 -38 -20 -68 -30 -60 -25 -68 39 -65 100 5
212 116 270 271 13 33 13 65 -1 76 -17 14 -62 -10 -109 -58 -19 -20 -35 -32
-35 -28 0 5 30 61 67 124 82 141 92 159 132 240 34 69 29 100 -8 50z m-149
-483 c-42 -84 -116 -173 -146 -173 -20 0 -20 0 5 48 57 112 166 249 177 221 2
-8 -14 -51 -36 -96z"/>
<path d="M356 1618 c-76 -16 -163 -91 -236 -203 -45 -69 -92 -170 -83 -179 4
-3 2 -6 -4 -6 -12 0 -33 -96 -33 -147 0 -44 16 -73 39 -73 27 0 88 44 154 111
31 32 57 57 57 55 0 -2 -7 -20 -15 -40 -20 -47 -22 -101 -5 -121 17 -21 25
-19 27 7 2 27 101 226 146 294 19 29 32 56 28 62 -3 5 -28 9 -56 7 -68 -3 -67
-3 -56 -24 8 -15 4 -30 -17 -69 -32 -61 -128 -170 -171 -195 -29 -17 -30 -17
-36 2 -17 55 46 229 127 350 34 50 138 155 146 147 2 -3 12 -1 22 4 13 7 22 4
34 -9 9 -10 14 -20 11 -23 -16 -16 -24 -91 -10 -97 11 -5 80 91 94 132 l10 27
-69 -2 c-38 -2 -85 -6 -104 -10z"/>
<path d="M1894 1602 c-26 -25 -99 -129 -168 -240 -24 -38 -30 -42 -61 -39 -23
3 -36 0 -40 -10 -7 -20 3 -33 20 -27 35 14 31 -12 -17 -104 -28 -53 -51 -99
-51 -102 0 -3 -4 -15 -10 -28 -6 -12 -8 -25 -4 -28 10 -10 236 -5 257 6 24 13
90 129 90 159 0 19 -8 14 -49 -31 -67 -74 -121 -109 -168 -111 -46 -2 -46 6 0
103 56 118 72 138 108 136 17 -1 38 4 46 13 14 13 13 16 -3 21 -10 4 -28 6
-41 4 -22 -2 -21 0 14 64 20 37 48 87 62 112 65 113 71 156 15 102z"/>
<path d="M475 1343 c-19 -20 -35 -40 -35 -45 0 -4 -20 -41 -44 -81 -48 -79
-106 -188 -106 -199 0 -3 10 -4 23 0 28 7 66 47 79 84 6 15 14 28 19 28 5 0 9
7 9 15 0 8 4 15 8 15 5 0 13 9 18 20 14 31 115 131 125 124 6 -3 -2 -26 -16
-52 -17 -31 -22 -49 -15 -56 6 -6 10 -6 10 0 0 5 13 15 28 22 29 12 73 85 80
130 7 55 -68 23 -143 -60 -45 -49 -45 -32 -1 31 19 27 32 52 29 55 -14 13 -34
4 -68 -31z"/>
<path d="M795 1360 c-93 -31 -180 -127 -221 -244 -37 -107 -11 -117 84 -33 39
34 71 65 71 70 2 14 -17 7 -45 -20 -25 -23 -29 -24 -32 -10 -4 18 47 107 61
107 4 0 7 5 7 11 0 31 104 104 159 111 14 2 26 8 28 14 5 16 -55 13 -112 -6z"/>
<path d="M2120 1361 c-90 -32 -190 -160 -205 -264 -6 -41 -5 -50 14 -66 20
-18 61 -18 61 -1 0 4 10 10 23 14 26 6 135 102 126 111 -4 3 -24 -10 -45 -30
-67 -62 -117 -71 -108 -18 8 47 11 51 59 72 64 28 155 117 158 155 3 39 -25
48 -83 27z m13 -28 c13 -21 -46 -105 -96 -138 -35 -23 -34 -10 4 51 49 78 80
107 92 87z"/>
<path d="M2619 1359 c-47 -17 -66 -29 -119 -80 -67 -63 -139 -231 -108 -250
16 -10 70 25 124 81 26 27 49 48 51 46 2 -1 -6 -22 -18 -45 -29 -61 -32 -81
-10 -81 22 0 63 31 141 108 48 48 61 65 52 74 -9 9 -12 9 -12 0 0 -13 -79 -92
-92 -92 -4 0 -4 8 -1 18 10 25 75 146 83 152 5 4 5 17 1 36 -3 12 -60 -31 -75
-58 -41 -68 -148 -169 -160 -150 -8 13 55 113 101 159 45 46 96 73 138 73 22
0 37 18 18 21 -45 6 -70 3 -114 -12z"/>
<path d="M2746 1231 c-4 -7 -5 -15 -2 -18 9 -9 19 4 14 18 -4 11 -6 11 -12 0z"/>
</g>
</svg>
